<?xml version="1.0" encoding="UTF-8" standalone="no"?>
<!-- Created with Inkscape (http://www.inkscape.org/) -->

<svg
   xmlns:dc="http://purl.org/dc/elements/1.1/"
   xmlns:cc="http://creativecommons.org/ns#"
   xmlns:rdf="http://www.w3.org/1999/02/22-rdf-syntax-ns#"
   xmlns:svg="http://www.w3.org/2000/svg"
   xmlns="http://www.w3.org/2000/svg"
   xmlns:sodipodi="http://sodipodi.sourceforge.net/DTD/sodipodi-0.dtd"
   xmlns:inkscape="http://www.inkscape.org/namespaces/inkscape"
   width="210mm"
   height="297mm"
   viewBox="0 0 210 297"
   version="1.1"
   id="svg8"
   inkscape:version="0.92.2 5c3e80d, 2017-08-06"
   sodipodi:docname="drawing.svg">
  <defs
     id="defs2" />
  <sodipodi:namedview
     id="base"
     pagecolor="#ffffff"
     bordercolor="#666666"
     borderopacity="1.0"
     inkscape:pageopacity="0.0"
     inkscape:pageshadow="2"
     inkscape:zoom="0.64"
     inkscape:cx="737.73202"
     inkscape:cy="692.45037"
     inkscape:document-units="mm"
     inkscape:current-layer="layer1"
     showgrid="false"
     inkscape:measure-start="57.1429,865.714"
     inkscape:measure-end="91.4286,497.143"
     showguides="true"
     inkscape:guide-bbox="true"
     inkscape:window-width="1440"
     inkscape:window-height="794"
     inkscape:window-x="0"
     inkscape:window-y="1"
     inkscape:window-maximized="1" />
  <metadata
     id="metadata5">
    <rdf:RDF>
      <cc:Work
         rdf:about="">
        <dc:format>image/svg+xml</dc:format>
        <dc:type
           rdf:resource="http://purl.org/dc/dcmitype/StillImage" />
        <dc:title></dc:title>
      </cc:Work>
    </rdf:RDF>
  </metadata>
  <g
     inkscape:label="Layer 1"
     inkscape:groupmode="layer"
     id="layer1">
    <rect
       style="fill:#e2e3db;stroke-width:0.26458332"
       id="rect4562"
       width="180.66081"
       height="160.81706"
       x="16.123047"
       y="22.081381" />
    <path
       style="fill:#e2e3db;stroke-width:0.26458332"
       id="path4564"
       d="m 73.817262,127.60235 c 0.821243,-2.18618 1.893313,-4.25917 3.1344,-6.23369 1.99069,-2.93081 4.628639,-5.25468 7.388368,-7.43071 3.439218,-2.74497 7.028772,-5.28955 10.632349,-7.81158 2.823173,-1.91214 5.332151,-4.20085 7.784361,-6.554585 1.56457,-1.614789 2.75355,-3.525843 3.8912,-5.450398 0.57974,-1.131242 1.02523,-2.328823 1.45759,-3.523147 0.21698,-0.913598 0.78937,-1.548016 1.42948,-2.204008 1.235,-1.20731 2.46565,-2.417194 3.6594,-3.66549 0.95835,-0.954246 1.85556,-1.96746 2.82699,-2.908265 0.46924,-0.457015 0.91241,-0.940703 1.34834,-1.427578 0,0 5.74043,-2.251319 5.74043,-2.251319 v 0 c -0.63788,0.220353 -0.9271,0.935419 -1.43623,1.345383 -0.97939,0.963951 -1.95176,1.924902 -2.90402,2.917433 -1.1858,1.242206 -2.37904,2.476622 -3.63097,3.651996 -0.56095,0.606473 -1.29072,1.123646 -1.47367,1.970262 -0.52759,1.206831 -0.94104,2.463536 -1.5073,3.654399 -1.19827,1.94437 -2.33764,3.939262 -3.9018,5.626568 -2.49367,2.384809 -5.01466,4.739199 -7.87541,6.689529 -3.604406,2.50441 -7.199421,5.02681 -10.624987,7.77441 -2.776929,2.15286 -5.303337,4.30825 -7.350421,7.20046 -0.73591,1.11631 -1.353521,2.21505 -1.941947,3.4139 -0.170825,0.34805 -0.376203,0.67969 -0.527137,1.03681 -0.129275,0.30586 -0.191143,0.63672 -0.311052,0.94637 -0.07833,0.20229 -0.188296,0.39086 -0.282445,0.58629 0,0 -5.525519,2.64696 -5.525519,2.64696 z"
       inkscape:connector-curvature="0" />
    <path
       style="fill:none;stroke:#000000;stroke-width:0.26458332px;stroke-linecap:butt;stroke-linejoin:miter;stroke-opacity:1"
       d="m 60.771484,137.42317 c 73.043306,27.59148 116.067776,24.1015 65.319006,-76.481115 z"
       id="path4566"
       inkscape:connector-curvature="0"
       sodipodi:nodetypes="ccc" />
    <path
       style="fill:none;stroke:#000000;stroke-width:0.26458332px;stroke-linecap:butt;stroke-linejoin:miter;stroke-opacity:1"
       d="M 60.771484,137.42317 C 64.02963,104.42344 82.112608,77.433781 126.09049,60.942055 Z"
       id="path4568"
       inkscape:connector-curvature="0"
       sodipodi:nodetypes="ccc" />
    <path
       style="fill:#005522;stroke-width:1.5625"
       d="m 232.57388,504.99119 c 3.8194,-29.21007 14.85028,-67.36617 27.08496,-93.68758 29.48598,-63.43542 82.29124,-114.76221 157.65829,-153.24408 24.56203,-12.54119 50.22114,-23.70481 51.51367,-22.41227 0.80864,0.80864 -234.99004,277.54705 -236.48769,277.54705 -0.46301,0 -0.35916,-3.6914 0.23077,-8.20312 z"
       id="path4570"
       inkscape:connector-curvature="0"
       transform="scale(0.26458333)" />
    <path
       style="fill:#005522;stroke-width:1.5625"
       d="m 234.00693,500.75708 c 1.48751,-13.14781 9.07431,-43.24174 15.77233,-62.56277 23.07774,-66.56977 71.39116,-123.08045 140.46963,-164.3029 14.40483,-8.59605 55.37175,-29.2075 67.7676,-34.09553 11.04061,-4.35361 13.74592,-7.8858 -65.19139,85.11718 -71.43859,84.16808 -158.17963,185.15625 -159.03493,185.15625 -0.46024,0 -0.36269,-4.1905 0.21676,-9.31223 z"
       id="path4572"
       inkscape:connector-curvature="0"
       transform="scale(0.26458333)" />
    <path
       style="fill:#ff9955;stroke-width:1.5625"
       d="m 234.00693,500.75708 c 1.48751,-13.14781 9.07431,-43.24174 15.77233,-62.56277 22.44839,-64.75436 68.40385,-119.73405 134.02715,-160.34596 26.99556,-16.70658 77.86744,-41.54555 80.23636,-39.17663 0.55012,0.55013 -8.0513,11.74198 -19.11425,24.87078 -69.45375,82.42324 -209.99092,246.52681 -211.12386,246.52681 -0.46821,0 -0.37718,-4.1905 0.20227,-9.31223 z"
       id="path4574"
       inkscape:connector-curvature="0"
       transform="scale(0.26458333)" />
    <path
       style="fill:#a05a2c;stroke-width:1.5625"
       d="M 433.35702,573.20341 C 380.67008,567.02256 328.67947,553.77306 258.47475,528.63573 l -26.61287,-9.52895 5.37614,-6.47186 c 33.06603,-39.80526 237.91166,-278.13575 238.91791,-277.97234 1.74042,0.28264 26.06668,50.97375 38.37128,79.95816 18.18451,42.83499 31.46103,82.94342 38.50028,116.30954 5.25869,24.9263 6.74917,60.60347 3.22392,77.17011 -6.878,32.32255 -26.85211,52.82833 -59.90384,61.49836 -11.94036,3.13216 -48.96002,5.25063 -62.99055,3.60466 z"
       id="path4576"
       inkscape:connector-curvature="0"
       transform="scale(0.26458333)" />
    <path
       style="fill:#ff9955;stroke-width:1.5625"
       d="m 234.98302,502.55441 c -0.0349,-2.84413 1.63334,-12.68807 3.70726,-21.87541 21.89621,-96.99889 75.20006,-164.63696 170.51088,-216.36382 21.27061,-11.54394 50.68525,-25.11231 51.87067,-23.92688 1.10663,1.10662 -4.97284,8.67771 -44.03353,54.83726 -29.35713,34.69248 -165.13595,193.33089 -177.75841,207.68564 l -4.23337,4.81436 z"
       id="path4578"
       inkscape:connector-curvature="0"
       transform="scale(0.26458333)" />
    <path
       style="fill:#f4eed7;stroke-width:1.5625"
       d="M 60.306208,387.02244 60.700768,82.725561 H 402.10702 743.51327 l 0.39456,304.296879 0.39457,304.29687 H 402.10702 59.911647 Z M 497.41952,571.83652 c 23.96769,-6.21682 43.47981,-20.78521 52.94083,-39.52736 25.22437,-49.96921 5.58589,-140.43191 -60.03731,-276.55593 l -13.00293,-26.97231 -8.30967,3.26853 C 394.20135,261.47492 338.3243,298.689 299.52833,344.92442 c -33.07044,39.41197 -54.95226,85.43745 -65.21014,137.16075 -2.11505,10.66472 -4.30902,23.68781 -4.87547,28.9402 -0.90822,8.42119 -0.69161,9.64965 1.8328,10.39435 1.57451,0.46448 14.81587,5.16472 29.42525,10.44497 105.04051,37.96462 189.48433,52.22362 236.71875,39.97183 z"
       id="path4580"
       inkscape:connector-curvature="0"
       transform="scale(0.26458333)" />
    <path
       sodipodi:type="spiral"
       style="fill:none;fill-rule:evenodd;stroke:#000000;stroke-width:0.26458332"
       id="path4626"
       sodipodi:cx="90.537109"
       sodipodi:cy="99.802734"
       sodipodi:expansion="1"
       sodipodi:revolution="3.0362699"
       sodipodi:radius="3.2288465"
       sodipodi:argument="-21.524302"
       sodipodi:t0="0"
       d="m 90.537109,99.802734 c -0.142838,-0.07199 0.02657,-0.228062 0.119655,-0.237407 0.25225,-0.02533 0.389317,0.26327 0.35516,0.476713 -0.0611,0.38181 -0.486488,0.56446 -0.833779,0.47292 -0.509663,-0.13435 -0.743453,-0.712253 -0.590666,-1.190845 0.203641,-0.637887 0.938851,-0.924003 1.547904,-0.708418 0.766432,0.271291 1.105344,1.165835 0.826172,1.904963 -0.338116,0.89519 -1.393033,1.28714 -2.262029,0.94393 -1.024081,-0.40447 -1.469219,-1.620366 -1.061677,-2.619094 0.470524,-1.15307 1.847783,-1.651489 2.976153,-1.179429 1.282126,0.536384 1.833893,2.075264 1.297183,3.333213 -0.602108,1.41123 -2.302791,2.01639 -3.690278,1.41494 -1.540373,-0.66773 -2.198965,-2.530355 -1.532688,-4.047343 0.09819,-0.223558 0.222144,-0.435702 0.36842,-0.631198" />
    <path
       sodipodi:type="spiral"
       style="fill:none;fill-rule:evenodd;stroke:#000000;stroke-width:0.26458332"
       id="path4630"
       sodipodi:cx="69.453125"
       sodipodi:cy="110.96484"
       sodipodi:expansion="1"
       sodipodi:revolution="3.0362699"
       sodipodi:radius="3.3072915"
       sodipodi:argument="-19.077446"
       sodipodi:t0="0"
       d="m 69.453125,110.96484 c 0.159605,-0.037 0.12864,0.19689 0.06152,0.26528 -0.181884,0.18534 -0.478984,0.0481 -0.592071,-0.14223 -0.202288,-0.3405 0.01267,-0.76318 0.345982,-0.91887 0.489145,-0.22849 1.052062,0.0729 1.245666,0.54973 0.258044,0.63548 -0.132865,1.34273 -0.753488,1.57247 -0.78099,0.2891 -1.634261,-0.19257 -1.899259,-0.95724 -0.320949,-0.92613 0.252133,-1.9263 1.160993,-2.22606 1.071059,-0.35326 2.21864,0.31162 2.552853,1.36475 0.385861,1.21587 -0.371052,2.51119 -1.568498,2.87965 -1.360614,0.41866 -2.803892,-0.43045 -3.206447,-1.77225 -0.451606,-1.50531 0.489811,-3.0967 1.976003,-3.53325 1.649954,-0.48465 3.389579,0.54916 3.86004,2.17976 0.06933,0.2403 0.110904,0.48851 0.123996,0.73827" />
    <path
       sodipodi:type="spiral"
       style="fill:none;fill-rule:evenodd;stroke:#000000;stroke-width:0.26458332"
       id="path4632"
       sodipodi:cx="101.2858"
       sodipodi:cy="83.266273"
       sodipodi:expansion="1"
       sodipodi:revolution="3.0362699"
       sodipodi:radius="2.6146436"
       sodipodi:argument="-21.897289"
       sodipodi:t0="0"
       d="m 101.2858,83.266273 c -0.12896,-0.01214 -0.0473,-0.179821 0.0202,-0.214336 0.18275,-0.09353 0.37127,0.08365 0.4085,0.25469 0.0666,0.305949 -0.2003,0.569213 -0.4892,0.602656 -0.42398,0.04908 -0.77081,-0.317727 -0.79682,-0.723717 -0.0347,-0.54112 0.43533,-0.973827 0.95823,-0.990976 0.65802,-0.02158 1.17756,0.552988 1.18514,1.192744 0.009,0.774831 -0.67068,1.381689 -1.42726,1.379296 -0.89161,-0.0028 -1.586076,-0.788374 -1.573456,-1.661771 0.01457,-1.008371 0.906086,-1.790633 1.896286,-1.767615 1.12512,0.02615 1.99531,1.023805 1.96177,2.130797 -0.0376,1.241879 -1.14153,2.200071 -2.36531,2.155935 -1.358626,-0.049 -2.404894,-1.259259 -2.350092,-2.599824 0.0081,-0.197559 0.03895,-0.394113 0.09157,-0.5847" />
    <path
       sodipodi:type="spiral"
       style="fill:none;fill-rule:evenodd;stroke:#000000;stroke-width:0.26458332"
       id="path4636"
       sodipodi:cx="90.537109"
       sodipodi:cy="87.813797"
       sodipodi:expansion="1"
       sodipodi:revolution="3.0362699"
       sodipodi:radius="4.2159863"
       sodipodi:argument="-22.021643"
       sodipodi:t0="0"
       d="m 90.537109,87.813797 c -0.20876,0.0064 -0.111579,-0.278263 -0.01058,-0.346974 0.273691,-0.186201 0.610762,0.05959 0.704532,0.325806 0.167734,0.4762 -0.206636,0.9508 -0.662196,1.06209 -0.668553,0.163322 -1.296839,-0.354204 -1.419647,-0.998586 -0.163685,-0.858861 0.501763,-1.645189 1.334976,-1.777206 1.048513,-0.166129 1.994685,0.649272 2.134763,1.671366 0.169654,1.237894 -0.796742,2.344836 -2.007756,2.492322 -1.427139,0.173807 -2.695395,-0.944187 -2.849879,-2.344146 -0.178358,-1.616309 1.091614,-3.046229 2.680536,-3.207438 1.805434,-0.183175 3.397253,1.239031 3.564995,3.016927 0.188181,1.994529 -1.38644,3.748416 -3.353316,3.922552 -2.183606,0.193325 -4.099685,-1.533842 -4.280111,-3.689706 -0.02659,-0.31771 -0.0165,-0.638371 0.02957,-0.953833" />
    <path
       sodipodi:type="spiral"
       style="fill:none;fill-rule:evenodd;stroke:#000000;stroke-width:0.26458332"
       id="path4643"
       sodipodi:cx="107.07356"
       sodipodi:cy="71.690758"
       sodipodi:expansion="1"
       sodipodi:revolution="3.0362699"
       sodipodi:radius="2.5146837"
       sodipodi:argument="-19.242596"
       sodipodi:t0="0"
       d="m 107.07356,71.690758 c 0.11508,-0.04771 0.12109,0.131582 0.0793,0.191265 -0.11324,0.16174 -0.35322,0.09597 -0.46183,-0.03266 -0.19428,-0.230091 -0.0859,-0.573965 0.14463,-0.732399 0.3383,-0.232509 0.79816,-0.0768 1.00297,0.256592 0.27296,0.444354 0.0682,1.023651 -0.36856,1.273533 -0.54961,0.314451 -1.24977,0.05986 -1.5441,-0.480521 -0.35648,-0.654475 -0.0517,-1.476238 0.59248,-1.814667 0.75914,-0.398827 1.70294,-0.04362 2.08524,0.70445 0.44138,0.863673 0.0356,1.929777 -0.81642,2.355801 -0.96812,0.484076 -2.15672,0.02765 -2.62636,-0.928379 -0.52687,-1.072526 -0.0197,-2.383749 1.04034,-2.896935 1.17688,-0.569733 2.61083,-0.01183 3.1675,1.152309 0.082,0.171559 0.14424,0.352523 0.18528,0.538201" />
    <path
       sodipodi:type="spiral"
       style="fill:none;fill-rule:evenodd;stroke:#000000;stroke-width:0.26458332"
       id="path4645"
       sodipodi:cx="80.615234"
       sodipodi:cy="104.76367"
       sodipodi:expansion="1"
       sodipodi:revolution="3.0362699"
       sodipodi:radius="2.647125"
       sodipodi:argument="-21.544298"
       sodipodi:t0="0"
       d="m 80.615234,104.76367 c -0.118261,-0.0567 0.01804,-0.18737 0.09419,-0.19656 0.206347,-0.0249 0.323428,0.20942 0.29893,0.38493 -0.04382,0.31396 -0.389508,0.47065 -0.675673,0.40131 -0.419959,-0.10177 -0.621064,-0.57163 -0.503674,-0.96642 0.156462,-0.5262 0.754402,-0.77277 1.257161,-0.60605 0.63267,0.20981 0.925131,0.93749 0.708417,1.54791 -0.262469,0.7393 -1.12073,1.07787 -1.838648,0.81079 -0.846041,-0.31475 -1.230841,-1.30409 -0.913161,-2.1294 0.366773,-0.95285 1.487503,-1.38397 2.420135,-1.01553 1.059716,0.41864 1.537211,1.67097 1.117906,2.71088 -0.470397,1.16662 -1.854479,1.69053 -3.001623,1.22028 -1.273548,-0.52207 -1.84391,-2.03801 -1.32265,-3.29237 0.07682,-0.18485 0.174943,-0.36077 0.291637,-0.52341" />
    <path
       sodipodi:type="spiral"
       style="fill:none;fill-rule:evenodd;stroke:#000000;stroke-width:0.26458332"
       id="path4647"
       sodipodi:cx="64.905602"
       sodipodi:cy="121.30013"
       sodipodi:expansion="1"
       sodipodi:revolution="3.0362699"
       sodipodi:radius="2.6146436"
       sodipodi:argument="-18.755695"
       sodipodi:t0="0"
       d="m 64.905602,121.30013 c 0.128957,0.0121 0.04726,0.17982 -0.02018,0.21434 -0.182748,0.0935 -0.371269,-0.0837 -0.408496,-0.25469 -0.06659,-0.30595 0.200299,-0.56921 0.489205,-0.60266 0.42398,-0.0491 0.770808,0.31773 0.796815,0.72372 0.03466,0.54112 -0.43533,0.97383 -0.958232,0.99098 -0.658018,0.0216 -1.177554,-0.55299 -1.185134,-1.19275 -0.0092,-0.77483 0.670674,-1.38169 1.427259,-1.37929 0.891609,0.003 1.586075,0.78837 1.573453,1.66177 -0.01457,1.00837 -0.906087,1.79063 -1.896286,1.76761 -1.125127,-0.0261 -1.995307,-1.02381 -1.961772,-2.1308 0.03762,-1.24188 1.141532,-2.20007 2.365313,-2.15593 1.358628,0.049 2.404896,1.25926 2.350091,2.59983 -0.0081,0.19756 -0.03895,0.39411 -0.09157,0.5847" />
  </g>
</svg>
