<?xml version="1.0"?>
<svg xmlns:rdf="http://www.w3.org/1999/02/22-rdf-syntax-ns#" xmlns="http://www.w3.org/2000/svg" xmlns:cc="http://creativecommons.org/ns#" xmlns:dc="http://purl.org/dc/elements/1.1/" xmlns:svg="http://www.w3.org/2000/svg" id="svg3457" viewBox="0 0 555.71 567.14" version="1.0">
  <defs id="defs3459">
    <filter id="filter4021">
      <feGaussianBlur id="feGaussianBlur4023" stdDeviation="19.135882"/>
    </filter>
  </defs>
  <g id="layer1" transform="translate(-71.429 -156.65)">
    <g id="g3559" transform="matrix(.78178 0 0 .78178 38.003 61.908)">
      <path id="path2685" opacity=".76446" stroke-linejoin="round" d="m542.41 169.24c-64.21 0-119.82 39.64-146.91 97.39-27.68-55.8-82.27-93.78-145.14-93.78-90.79 0-164.49 79.27-164.49 176.93 0.002 37.84 11.112 72.9 29.95 101.68l-0.88 0.57 284.27 351.49 282.07-374.77c16.2-27.41 25.62-47.73 25.62-82.58 0-97.66-73.69-176.93-164.49-176.93z" stroke="#a21313" stroke-width="6.7433" fill="#f72c09"/>
      <g id="g4025" transform="translate(5.5915 47.889)">
        <path id="path3987" opacity=".57438" filter="url(#filter4021)" d="m541.71 124.6c-64.21 0-119.83 39.64-146.91 97.4-27.68-55.8-82.28-93.79-145.15-93.79-90.79 0-164.48 79.28-164.48 176.94-0.005 37.84 11.105 72.9 29.94 101.67l-0.88 0.57 284.28 351.5 282.07-374.78c16.19-27.4 25.61-47.72 25.61-82.57 0-97.67-73.69-176.94-164.48-176.94z"/>
        <path id="path3593" opacity=".76446" stroke-linejoin="round" d="m390.64 228.5c-4.19 0-7.82 2.58-9.58 6.35-1.81-3.64-5.37-6.12-9.47-6.12-5.92 0-10.73 5.17-10.73 11.54 0 2.47 0.73 4.76 1.95 6.63l-0.05 0.04 18.54 22.92 18.4-24.44c1.05-1.79 1.67-3.11 1.67-5.38 0-6.37-4.81-11.54-10.73-11.54z" stroke="#a21313" stroke-width=".43981"/>
        <path id="path3595" opacity=".76446" stroke-linejoin="round" d="m442.25 228.5c-4.19 0-7.82 2.58-9.58 6.35-1.81-3.64-5.37-6.12-9.47-6.12-5.92 0-10.73 5.17-10.73 11.54 0 2.47 0.73 4.76 1.95 6.63l-0.05 0.04 18.54 22.92 18.4-24.44c1.05-1.79 1.67-3.11 1.67-5.38 0-6.37-4.81-11.54-10.73-11.54z" stroke="#a21313" stroke-width=".43981"/>
        <path id="path3597" opacity=".76446" stroke-linejoin="round" d="m492.16 228.5c-4.19 0-7.82 2.58-9.58 6.35-1.81-3.64-5.37-6.12-9.47-6.12-5.92 0-10.73 5.17-10.73 11.54 0 2.47 0.73 4.76 1.96 6.63l-0.06 0.04 18.54 22.92 18.4-24.44c1.05-1.79 1.67-3.11 1.67-5.38 0-6.37-4.81-11.54-10.73-11.54z" stroke="#a21313" stroke-width=".43981"/>
        <path id="path3599" opacity=".76446" stroke-linejoin="round" d="m543.77 228.5c-4.19 0-7.82 2.58-9.58 6.35-1.81-3.64-5.37-6.12-9.47-6.12-5.92 0-10.73 5.17-10.73 11.54 0 2.47 0.73 4.76 1.96 6.63l-0.06 0.04 18.54 22.92 18.4-24.44c1.05-1.79 1.67-3.11 1.67-5.38 0-6.37-4.81-11.54-10.73-11.54z" stroke="#a21313" stroke-width=".43981"/>
        <path id="path3601" opacity=".76446" stroke-linejoin="round" d="m592.02 227.68c-4.19 0-7.82 2.59-9.58 6.35-1.81-3.64-5.37-6.11-9.47-6.11-5.92 0-10.73 5.17-10.73 11.54 0 2.46 0.73 4.75 1.95 6.63l-0.05 0.04 18.54 22.92 18.4-24.44c1.05-1.79 1.67-3.12 1.67-5.39 0-6.37-4.81-11.54-10.73-11.54z" stroke="#a21313" stroke-width=".43981"/>
        <path id="path3603" opacity=".76446" stroke-linejoin="round" d="m643.63 227.68c-4.19 0-7.82 2.59-9.58 6.35-1.81-3.64-5.37-6.11-9.47-6.11-5.92 0-10.73 5.17-10.73 11.54 0 2.46 0.73 4.75 1.95 6.63l-0.05 0.04 18.54 22.92 18.39-24.44c1.06-1.79 1.68-3.12 1.68-5.39 0-6.37-4.81-11.54-10.73-11.54z" stroke="#a21313" stroke-width=".43981"/>
        <path id="path3605" opacity=".76446" stroke-linejoin="round" d="m569.6 128.48c-4.42 1.43-7.66 5.82-7.66 11.03 0 2.47 0.74 4.75 1.97 6.63l-0.06 0.06 18.53 22.9 18.4-24.43c1.02-1.73 1.62-3.02 1.66-5.16-6.17-2.87-12.56-5.32-19.09-7.37-0.45 0.61-0.86 1.27-1.19 1.96-0.56-1.12-1.3-2.13-2.16-3-3.43-0.99-6.89-1.86-10.4-2.62zm-328.66 0.22c-2.22 0.06-4.43 0.19-6.63 0.34-2.36 1.07-4.31 3.02-5.46 5.47-0.93-1.87-2.32-3.45-4-4.53-4.61 0.61-9.15 1.42-13.63 2.44-1.6 2.01-2.56 4.64-2.56 7.5 0 2.47 0.71 4.75 1.94 6.62l-0.04 0.06 18.54 22.91 18.4-24.44c1.06-1.78 1.66-3.1 1.66-5.37 0-5.15-3.14-9.51-7.47-11-0.25 0-0.5-0.01-0.75 0zm23.19 1.12c-3.32 1.96-5.57 5.73-5.57 10.1 0 2.47 0.74 4.75 1.97 6.62l-0.06 0.06 18.53 22.91 18.41-24.44c1.06-1.78 1.65-3.1 1.65-5.37 0-0.47-0.04-0.93-0.09-1.38-6.2-2.31-12.58-4.21-19.09-5.72-0.43 0.6-0.81 1.24-1.13 1.91-0.46-0.94-1.04-1.8-1.72-2.56-4.24-0.9-8.54-1.59-12.9-2.13zm233.31 0.41c-12.16 3.26-23.79 7.98-34.72 13.97 0.33 1 0.76 1.93 1.31 2.78l-0.03 0.03 18.53 22.91 18.41-24.44c1.06-1.79 1.66-3.1 1.66-5.38 0-4.18-2.07-7.84-5.16-9.87zm-300.34 6.12c-11.86 3.9-23.17 9.2-33.72 15.72l14.09 17.44 18.41-24.44c1.05-1.78 1.68-3.1 1.68-5.37 0-1.16-0.17-2.29-0.46-3.35zm113.53 6.88c0.33 1.2 0.84 2.31 1.5 3.31l-0.07 0.06 18.57 22.91 7.43-9.91c-8.59-6.34-17.77-11.85-27.43-16.37zm305 3.22l18.37 22.65 4.75-6.31c-7.24-6.12-14.98-11.58-23.12-16.34zm-174.13 11.65c-3.77 2.92-7.44 5.99-10.97 9.22l2.1 2.6 8.87-11.82zm208.28 19.54c-5.92 0-10.75 5.16-10.75 11.53 0 2.47 0.74 4.78 1.97 6.65l-0.06 0.03 18.53 22.91 13.06-17.34c-4.03-6.27-8.42-12.24-13.15-17.88-0.04 0.08-0.09 0.14-0.13 0.22-0.19-0.39-0.42-0.76-0.65-1.12-0.69-0.81-1.37-1.62-2.07-2.41l-0.03-0.03c-1.84-1.6-4.17-2.56-6.72-2.56zm-230.25 0.78c-7.97 8.79-15.1 18.48-21.25 28.9l9.91 12.28 18.41-24.46c1.05-1.79 1.65-3.11 1.65-5.38 0-5.63-3.75-10.33-8.72-11.34zm-72.65 0.03c-5.92 0-10.72 5.19-10.72 11.56 0 2.47 0.71 4.75 1.94 6.63l-0.07 0.03 18.57 22.93 17.68-23.53c-4.21-5.75-8.75-11.23-13.59-16.37-1.86 1.12-3.38 2.81-4.34 4.87-1.81-3.64-5.37-6.12-9.47-6.12zm-222.78 7.4c-8.18 9.57-15.39 20.12-21.47 31.44l2.18 2.72 18.41-24.47c1.06-1.79 1.66-3.1 1.66-5.37 0-1.53-0.29-2.98-0.78-4.32zm550.4 42.07c-5.92 0-10.75 5.16-10.75 11.53 0 2.47 0.74 4.75 1.97 6.62l-0.06 0.07 18.53 22.9 11.37-15.09c-2.18-8.33-4.91-16.41-8.15-24.19-1.45 1.1-2.64 2.57-3.44 4.28-1.8-3.64-5.37-6.12-9.47-6.12zm-579.25 4.84c-3.527 8.38-6.49 17.11-8.781 26.13l9.844-13.07c1.056-1.78 1.687-3.1 1.687-5.37 0-2.95-1.047-5.65-2.75-7.69zm603.94 45.84c-5.92 0-10.72 5.17-10.72 11.54 0 2.46 0.71 4.74 1.94 6.62l-0.06 0.03 11.15 13.78c0.14-2.78 0.22-5.64 0.22-8.62 0-7.89-0.5-15.67-1.44-23.28-0.36-0.04-0.72-0.07-1.09-0.07zm-7 48.6c-4.19 0-7.83 2.61-9.59 6.37-1.81-3.64-5.37-6.12-9.47-6.12-5.92 0-10.72 5.16-10.72 11.53 0 2.47 0.71 4.75 1.94 6.62l-0.04 0.07 18.54 22.9 6.46-8.59c4.46-9.6 7.83-19.16 9.91-29.91-1.88-1.77-4.33-2.87-7.03-2.87zm-607.06 1.25c-1.037 0.08-2.033 0.34-2.968 0.72 1.122 9 2.851 17.79 5.187 26.31l7.625-10.13c1.057-1.78 1.656-3.1 1.656-5.37 0-6.37-4.797-11.53-10.718-11.53-0.262 0-0.525-0.02-0.782 0zm581.56 47.62c-4.19 0-7.8 2.58-9.56 6.35-1.81-3.64-5.37-6.13-9.47-6.13-5.92 0-10.75 5.16-10.75 11.53 0 2.47 0.74 4.78 1.97 6.66l-0.07 0.03 15.44 19.06 21.85-29.03c0.21-0.36 0.41-0.7 0.62-1.06-1.55-4.33-5.46-7.41-10.03-7.41zm-556.38 1.22c-4.18 0-7.79 2.58-9.56 6.35-1.186-2.4-3.135-4.3-5.498-5.32 4.174 9.91 9.188 19.32 14.908 28.16l9.22-12.28c1.05-1.79 1.68-3.1 1.68-5.38 0-6.37-4.82-11.53-10.75-11.53zm534.41 47.63c-4.19 0-7.83 2.57-9.59 6.34-1.81-3.64-5.37-6.12-9.47-6.12-5.92 0-10.72 5.19-10.72 11.56 0 2.47 0.71 4.75 1.94 6.62l-0.03 0.03 7.75 9.6 21.06-27.97c-0.31-0.03-0.62-0.06-0.94-0.06zm-504.75 1.22c-4.19 0-7.83 2.57-9.59 6.34-1.04-2.09-2.66-3.8-4.63-4.88l18.06 22.35 5.19-6.91c1.06-1.79 1.69-3.1 1.69-5.37 0-6.37-4.8-11.53-10.72-11.53zm459.31 47.03c-5.92 0-10.72 5.19-10.72 11.56 0 2.47 0.74 4.75 1.97 6.62l-0.06 0.04 2.69 3.34 13.69-18.19c-1.94-2.08-4.61-3.37-7.57-3.37zm-434.09 1c-0.57 0-1.11 0.06-1.66 0.15l11.82 14.6c0.36-0.95 0.56-1.93 0.56-3.22 0-6.37-4.8-11.53-10.72-11.53zm104.75 99.31c-4.19 0-7.83 2.61-9.59 6.37-1.81-3.63-5.37-6.12-9.47-6.12-2.04 0-3.94 0.63-5.57 1.69l23.29 28.81 10.4-13.81c1.06-1.79 1.66-3.1 1.66-5.38 0-6.37-4.8-11.56-10.72-11.56zm253.44 0.41c-4.19 0-7.83 2.6-9.6 6.37-1.8-3.64-5.36-6.12-9.47-6.12-5.92 0-10.71 5.16-10.71 11.53 0 2.47 0.7 4.78 1.93 6.65l-0.03 0.03 12.53 15.5 22.97-30.53c-1.94-2.11-4.65-3.43-7.62-3.43zm-223.88 50.09c-4.19 0-7.82 2.58-9.59 6.34-0.86-1.73-2.14-3.18-3.66-4.25l17.35 21.44 4.96-6.62c1.06-1.79 1.66-3.11 1.66-5.38 0-6.37-4.8-11.53-10.72-11.53zm184.47 0.62c-5.92 0-10.72 5.2-10.72 11.57 0 2.47 0.71 4.75 1.94 6.62l-0.06 0.03 3.4 4.22 13.72-18.22c-1.97-2.57-4.94-4.22-8.28-4.22zm-159.19 49.1l9.85 12.19c0.01-0.23 0.03-0.47 0.03-0.72 0-6.05-4.36-10.99-9.88-11.47zm133.22 0.62c-5.7 0.27-10.25 5.3-10.25 11.5 0 0.66 0.06 1.31 0.16 1.94l10.09-13.44zm-52.62 49.19c-4.19 0-7.83 2.58-9.6 6.34-1.8-3.63-5.36-6.12-9.47-6.12-5.92 0-10.71 5.19-10.71 11.56 0 0.45 0.01 0.88 0.06 1.31l18.37 22.72 21.38-28.37c-1.53-4.35-5.45-7.44-10.03-7.44z" stroke="#a21313" stroke-width=".43981"/>
        <path id="path3615" opacity=".76446" stroke-linejoin="round" d="m138.87 228.9c-4.19 0-7.82 2.59-9.58 6.36-1.81-3.64-5.37-6.12-9.47-6.12-5.92 0-10.73 5.17-10.73 11.54 0 2.47 0.73 4.75 1.95 6.63l-0.05 0.04 18.54 22.92 18.4-24.44c1.05-1.79 1.67-3.11 1.67-5.39 0-6.37-4.81-11.54-10.73-11.54z" stroke="#a21313" stroke-width=".43981"/>
        <path id="path3617" opacity=".76446" stroke-linejoin="round" d="m187.12 228.09c-4.19 0-7.82 2.58-9.59 6.35-1.8-3.64-5.36-6.12-9.46-6.12-5.92 0-10.73 5.17-10.73 11.54 0 2.47 0.72 4.76 1.95 6.64l-0.05 0.03 18.54 22.93 18.39-24.45c1.06-1.78 1.68-3.11 1.68-5.38 0-6.37-4.81-11.54-10.73-11.54z" stroke="#a21313" stroke-width=".43981"/>
        <path id="path3619" opacity=".76446" stroke-linejoin="round" d="m238.73 228.09c-4.19 0-7.82 2.58-9.59 6.35-1.8-3.64-5.36-6.12-9.46-6.12-5.92 0-10.73 5.17-10.73 11.54 0 2.47 0.72 4.76 1.95 6.64l-0.05 0.03 18.54 22.93 18.39-24.45c1.06-1.78 1.67-3.11 1.67-5.38 0-6.37-4.8-11.54-10.72-11.54z" stroke="#a21313" stroke-width=".43981"/>
        <path id="path3621" opacity=".76446" stroke-linejoin="round" d="m288.64 228.09c-4.19 0-7.82 2.58-9.58 6.35-1.81-3.64-5.37-6.12-9.47-6.12-5.92 0-10.73 5.17-10.73 11.54 0 2.47 0.73 4.76 1.95 6.64l-0.05 0.03 18.54 22.93 18.4-24.45c1.05-1.78 1.67-3.11 1.67-5.38 0-6.37-4.81-11.54-10.73-11.54z" stroke="#a21313" stroke-width=".43981"/>
        <path id="path3623" opacity=".76446" stroke-linejoin="round" d="m340.25 228.09c-4.19 0-7.82 2.58-9.58 6.35-1.81-3.64-5.37-6.12-9.47-6.12-5.92 0-10.73 5.17-10.73 11.54 0 2.47 0.73 4.76 1.95 6.64l-0.05 0.03 18.54 22.93 18.4-24.45c1.05-1.78 1.67-3.11 1.67-5.38 0-6.37-4.81-11.54-10.73-11.54z" stroke="#a21313" stroke-width=".43981"/>
        <path id="path3625" opacity=".76446" stroke-linejoin="round" d="m415.34 279.18c-4.19 0-7.82 2.58-9.58 6.35-1.81-3.64-5.37-6.12-9.47-6.12-5.92 0-10.73 5.17-10.73 11.54 0 2.47 0.73 4.76 1.95 6.63l-0.05 0.04 18.54 22.93 18.39-24.45c1.06-1.78 1.68-3.11 1.68-5.38 0-6.37-4.81-11.54-10.73-11.54z" stroke="#a21313" stroke-width=".43981"/>
        <path id="path3627" opacity=".76446" stroke-linejoin="round" d="m466.95 279.18c-4.19 0-7.82 2.58-9.58 6.35-1.81-3.64-5.37-6.12-9.47-6.12-5.92 0-10.73 5.17-10.73 11.54 0 2.47 0.72 4.76 1.95 6.63l-0.05 0.04 18.54 22.93 18.39-24.45c1.06-1.78 1.68-3.11 1.68-5.38 0-6.37-4.81-11.54-10.73-11.54z" stroke="#a21313" stroke-width=".43981"/>
        <path id="path3629" opacity=".76446" stroke-linejoin="round" d="m516.86 279.18c-4.19 0-7.82 2.58-9.58 6.35-1.81-3.64-5.37-6.12-9.47-6.12-5.92 0-10.73 5.17-10.73 11.54 0 2.47 0.73 4.76 1.96 6.63l-0.06 0.04 18.54 22.93 18.4-24.45c1.05-1.78 1.67-3.11 1.67-5.38 0-6.37-4.81-11.54-10.73-11.54z" stroke="#a21313" stroke-width=".43981"/>
        <path id="path3631" opacity=".76446" stroke-linejoin="round" d="m568.47 279.18c-4.19 0-7.82 2.58-9.58 6.35-1.81-3.64-5.37-6.12-9.47-6.12-5.92 0-10.73 5.17-10.73 11.54 0 2.47 0.73 4.76 1.95 6.63l-0.05 0.04 18.54 22.93 18.4-24.45c1.05-1.78 1.67-3.11 1.67-5.38 0-6.37-4.81-11.54-10.73-11.54z" stroke="#a21313" stroke-width=".43981"/>
        <path id="path3633" opacity=".76446" stroke-linejoin="round" d="m616.72 278.36c-4.19 0-7.82 2.59-9.59 6.35-1.8-3.63-5.36-6.11-9.46-6.11-5.92 0-10.73 5.17-10.73 11.54 0 2.47 0.72 4.75 1.95 6.63l-0.05 0.04 18.54 22.92 18.39-24.44c1.06-1.79 1.67-3.11 1.67-5.39 0-6.37-4.8-11.54-10.72-11.54z" stroke="#a21313" stroke-width=".43981"/>
        <path id="path3635" opacity=".76446" stroke-linejoin="round" d="m668.33 278.36c-4.19 0-7.82 2.59-9.59 6.35-1.8-3.63-5.36-6.11-9.46-6.11-5.92 0-10.73 5.17-10.73 11.54 0 2.47 0.72 4.75 1.95 6.63l-0.05 0.04 18.54 22.92 18.39-24.44c1.06-1.79 1.67-3.11 1.67-5.39 0-6.37-4.8-11.54-10.72-11.54z" stroke="#a21313" stroke-width=".43981"/>
        <path id="path3645" opacity=".76446" stroke-linejoin="round" d="m111.96 279.58c-4.19 0-7.82 2.59-9.58 6.36-1.81-3.64-5.37-6.12-9.471-6.12-5.922 0-10.728 5.17-10.728 11.54 0 2.47 0.725 4.75 1.953 6.63l-0.057 0.04 18.543 22.92 18.39-24.44c1.06-1.79 1.68-3.11 1.68-5.39 0-6.37-4.81-11.54-10.73-11.54z" stroke="#a21313" stroke-width=".43981"/>
        <path id="path3647" opacity=".76446" stroke-linejoin="round" d="m163.57 279.58c-4.19 0-7.82 2.59-9.58 6.36-1.81-3.64-5.37-6.12-9.47-6.12-5.92 0-10.73 5.17-10.73 11.54 0 2.47 0.73 4.75 1.95 6.63l-0.05 0.04 18.54 22.92 18.39-24.44c1.06-1.79 1.68-3.11 1.68-5.39 0-6.37-4.81-11.54-10.73-11.54z" stroke="#a21313" stroke-width=".43981"/>
        <path id="path3649" opacity=".76446" stroke-linejoin="round" d="m211.82 278.77c-4.19 0-7.82 2.58-9.59 6.35-1.8-3.64-5.36-6.12-9.46-6.12-5.92 0-10.73 5.18-10.73 11.54 0 2.47 0.72 4.76 1.95 6.64l-0.06 0.03 18.55 22.93 18.39-24.44c1.06-1.79 1.67-3.12 1.67-5.39 0-6.37-4.8-11.54-10.72-11.54z" stroke="#a21313" stroke-width=".43981"/>
        <path id="path3651" opacity=".76446" stroke-linejoin="round" d="m263.43 278.77c-4.19 0-7.82 2.58-9.59 6.35-1.8-3.64-5.36-6.12-9.46-6.12-5.92 0-10.73 5.18-10.73 11.54 0 2.47 0.72 4.76 1.95 6.64l-0.06 0.03 18.55 22.93 18.39-24.44c1.06-1.79 1.67-3.12 1.67-5.39 0-6.37-4.8-11.54-10.72-11.54z" stroke="#a21313" stroke-width=".43981"/>
        <path id="path3653" opacity=".76446" stroke-linejoin="round" d="m313.34 278.77c-4.19 0-7.82 2.58-9.58 6.35-1.81-3.64-5.37-6.12-9.47-6.12-5.92 0-10.73 5.18-10.73 11.54 0 2.47 0.73 4.76 1.95 6.64l-0.05 0.03 18.54 22.93 18.39-24.44c1.06-1.79 1.68-3.12 1.68-5.39 0-6.37-4.81-11.54-10.73-11.54z" stroke="#a21313" stroke-width=".43981"/>
        <path id="path3655" opacity=".76446" stroke-linejoin="round" d="m364.95 278.77c-4.19 0-7.82 2.58-9.59 6.35-1.8-3.64-5.36-6.12-9.46-6.12-5.92 0-10.73 5.18-10.73 11.54 0 2.47 0.72 4.76 1.95 6.64l-0.05 0.03 18.54 22.93 18.39-24.44c1.06-1.79 1.68-3.12 1.68-5.39 0-6.37-4.81-11.54-10.73-11.54z" stroke="#a21313" stroke-width=".43981"/>
        <path id="path3657" opacity=".76446" stroke-linejoin="round" d="m389.28 328.03c-4.18 0-7.81 2.58-9.58 6.35-1.8-3.64-5.36-6.12-9.46-6.12-5.93 0-10.73 5.17-10.73 11.54 0 2.47 0.72 4.76 1.95 6.63l-0.06 0.04 18.54 22.93 18.4-24.45c1.06-1.79 1.67-3.11 1.67-5.38 0-6.37-4.8-11.54-10.73-11.54z" stroke="#a21313" stroke-width=".43981"/>
        <path id="path3659" opacity=".76446" stroke-linejoin="round" d="m440.89 328.03c-4.18 0-7.81 2.58-9.58 6.35-1.8-3.64-5.36-6.12-9.46-6.12-5.93 0-10.73 5.17-10.73 11.54 0 2.47 0.72 4.76 1.95 6.63l-0.06 0.04 18.54 22.93 18.4-24.45c1.06-1.79 1.67-3.11 1.67-5.38 0-6.37-4.8-11.54-10.73-11.54z" stroke="#a21313" stroke-width=".43981"/>
        <path id="path3661" opacity=".76446" stroke-linejoin="round" d="m490.81 328.03c-4.19 0-7.82 2.58-9.59 6.35-1.8-3.64-5.36-6.12-9.46-6.12-5.92 0-10.73 5.17-10.73 11.54 0 2.47 0.72 4.76 1.95 6.63l-0.06 0.04 18.55 22.93 18.39-24.45c1.06-1.79 1.67-3.11 1.67-5.38 0-6.37-4.8-11.54-10.72-11.54z" stroke="#a21313" stroke-width=".43981"/>
        <path id="path3663" opacity=".76446" stroke-linejoin="round" d="m542.42 328.03c-4.19 0-7.82 2.58-9.59 6.35-1.8-3.64-5.36-6.12-9.46-6.12-5.92 0-10.73 5.17-10.73 11.54 0 2.47 0.72 4.76 1.95 6.63l-0.06 0.04 18.55 22.93 18.39-24.45c1.06-1.79 1.67-3.11 1.67-5.38 0-6.37-4.8-11.54-10.72-11.54z" stroke="#a21313" stroke-width=".43981"/>
        <path id="path3665" opacity=".76446" stroke-linejoin="round" d="m590.66 327.21c-4.18 0-7.81 2.59-9.58 6.35-1.8-3.64-5.36-6.11-9.46-6.11-5.93 0-10.73 5.17-10.73 11.54 0 2.47 0.72 4.75 1.95 6.63l-0.06 0.04 18.54 22.92 18.4-24.44c1.06-1.79 1.67-3.12 1.67-5.39 0-6.37-4.8-11.54-10.73-11.54z" stroke="#a21313" stroke-width=".43981"/>
        <path id="path3667" opacity=".76446" stroke-linejoin="round" d="m642.27 327.21c-4.18 0-7.81 2.59-9.58 6.35-1.8-3.64-5.36-6.11-9.46-6.11-5.93 0-10.73 5.17-10.73 11.54 0 2.47 0.72 4.75 1.95 6.63l-0.06 0.04 18.54 22.92 18.4-24.44c1.06-1.79 1.67-3.12 1.67-5.39 0-6.37-4.8-11.54-10.73-11.54z" stroke="#a21313" stroke-width=".43981"/>
        <path id="path3679" opacity=".76446" stroke-linejoin="round" d="m137.51 328.43c-4.18 0-7.81 2.59-9.58 6.36-1.8-3.64-5.36-6.12-9.46-6.12-5.93 0-10.73 5.17-10.73 11.54 0 2.47 0.72 4.75 1.95 6.63l-0.06 0.04 18.54 22.92 18.4-24.44c1.06-1.79 1.67-3.11 1.67-5.39 0-6.37-4.8-11.54-10.73-11.54z" stroke="#a21313" stroke-width=".43981"/>
        <path id="path3681" opacity=".76446" stroke-linejoin="round" d="m185.76 327.62c-4.19 0-7.81 2.58-9.58 6.35-1.8-3.64-5.37-6.12-9.47-6.12-5.92 0-10.72 5.17-10.72 11.54 0 2.47 0.72 4.76 1.95 6.64l-0.06 0.03 18.54 22.93 18.4-24.45c1.06-1.78 1.67-3.11 1.67-5.38 0-6.37-4.81-11.54-10.73-11.54z" stroke="#a21313" stroke-width=".43981"/>
        <path id="path3683" opacity=".76446" stroke-linejoin="round" d="m237.37 327.62c-4.19 0-7.81 2.58-9.58 6.35-1.8-3.64-5.37-6.12-9.47-6.12-5.92 0-10.72 5.17-10.72 11.54 0 2.47 0.72 4.76 1.95 6.64l-0.06 0.03 18.54 22.93 18.4-24.45c1.06-1.78 1.67-3.11 1.67-5.38 0-6.37-4.81-11.54-10.73-11.54z" stroke="#a21313" stroke-width=".43981"/>
        <path id="path3685" opacity=".76446" stroke-linejoin="round" d="m287.28 327.62c-4.18 0-7.81 2.58-9.58 6.35-1.8-3.64-5.36-6.12-9.46-6.12-5.93 0-10.73 5.17-10.73 11.54 0 2.47 0.72 4.76 1.95 6.64l-0.06 0.03 18.54 22.93 18.4-24.45c1.06-1.78 1.67-3.11 1.67-5.38 0-6.37-4.8-11.54-10.73-11.54z" stroke="#a21313" stroke-width=".43981"/>
        <path id="path3687" opacity=".76446" stroke-linejoin="round" d="m338.89 327.62c-4.18 0-7.81 2.58-9.58 6.35-1.8-3.64-5.36-6.12-9.46-6.12-5.93 0-10.73 5.17-10.73 11.54 0 2.47 0.72 4.76 1.95 6.64l-0.06 0.03 18.54 22.93 18.4-24.45c1.06-1.78 1.67-3.11 1.67-5.38 0-6.37-4.8-11.54-10.73-11.54z" stroke="#a21313" stroke-width=".43981"/>
        <path id="path3689" opacity=".76446" stroke-linejoin="round" d="m413.71 376.88c-4.19 0-7.82 2.58-9.58 6.35-1.81-3.64-5.37-6.12-9.47-6.12-5.92 0-10.73 5.17-10.73 11.54 0 2.47 0.73 4.76 1.96 6.63l-0.06 0.04 18.54 22.92 18.4-24.44c1.05-1.79 1.67-3.11 1.67-5.38 0-6.37-4.81-11.54-10.73-11.54z" stroke="#a21313" stroke-width=".43981"/>
        <path id="path3691" opacity=".76446" stroke-linejoin="round" d="m465.32 376.88c-4.19 0-7.82 2.58-9.58 6.35-1.81-3.64-5.37-6.12-9.47-6.12-5.92 0-10.73 5.17-10.73 11.54 0 2.47 0.73 4.76 1.96 6.63l-0.06 0.04 18.54 22.92 18.4-24.44c1.05-1.79 1.67-3.11 1.67-5.38 0-6.37-4.81-11.54-10.73-11.54z" stroke="#a21313" stroke-width=".43981"/>
        <path id="path3693" opacity=".76446" stroke-linejoin="round" d="m515.23 376.88c-4.19 0-7.81 2.58-9.58 6.35-1.81-3.64-5.37-6.12-9.47-6.12-5.92 0-10.73 5.17-10.73 11.54 0 2.47 0.73 4.76 1.96 6.63l-0.06 0.04 18.54 22.92 18.4-24.44c1.05-1.79 1.67-3.11 1.67-5.38 0-6.37-4.81-11.54-10.73-11.54z" stroke="#a21313" stroke-width=".43981"/>
        <path id="path3695" opacity=".76446" stroke-linejoin="round" d="m566.84 376.88c-4.19 0-7.82 2.58-9.58 6.35-1.81-3.64-5.37-6.12-9.47-6.12-5.92 0-10.73 5.17-10.73 11.54 0 2.47 0.73 4.76 1.96 6.63l-0.06 0.04 18.54 22.92 18.4-24.44c1.05-1.79 1.67-3.11 1.67-5.38 0-6.37-4.81-11.54-10.73-11.54z" stroke="#a21313" stroke-width=".43981"/>
        <path id="path3697" opacity=".76446" stroke-linejoin="round" d="m615.09 376.06c-4.19 0-7.82 2.59-9.58 6.35-1.81-3.64-5.37-6.11-9.47-6.11-5.92 0-10.73 5.17-10.73 11.54 0 2.46 0.73 4.75 1.95 6.63l-0.05 0.04 18.54 22.92 18.4-24.44c1.05-1.79 1.67-3.12 1.67-5.39 0-6.37-4.81-11.54-10.73-11.54z" stroke="#a21313" stroke-width=".43981"/>
        <path id="path3711" opacity=".76446" stroke-linejoin="round" d="m161.94 377.28c-4.19 0-7.82 2.59-9.58 6.35-1.81-3.63-5.37-6.11-9.47-6.11-5.92 0-10.73 5.17-10.73 11.54 0 2.47 0.73 4.75 1.96 6.63l-0.06 0.04 18.54 22.92 18.4-24.44c1.05-1.79 1.67-3.11 1.67-5.39 0-6.37-4.81-11.54-10.73-11.54z" stroke="#a21313" stroke-width=".43981"/>
        <path id="path3713" opacity=".76446" stroke-linejoin="round" d="m210.19 376.47c-4.19 0-7.82 2.58-9.58 6.35-1.81-3.64-5.37-6.12-9.47-6.12-5.92 0-10.73 5.17-10.73 11.54 0 2.47 0.73 4.76 1.95 6.64l-0.05 0.03 18.54 22.93 18.39-24.45c1.06-1.78 1.68-3.11 1.68-5.38 0-6.37-4.81-11.54-10.73-11.54z" stroke="#a21313" stroke-width=".43981"/>
        <path id="path3715" opacity=".76446" stroke-linejoin="round" d="m261.8 376.47c-4.19 0-7.82 2.58-9.58 6.35-1.81-3.64-5.37-6.12-9.47-6.12-5.92 0-10.73 5.17-10.73 11.54 0 2.47 0.73 4.76 1.95 6.64l-0.05 0.03 18.54 22.93 18.39-24.45c1.06-1.78 1.68-3.11 1.68-5.38 0-6.37-4.81-11.54-10.73-11.54z" stroke="#a21313" stroke-width=".43981"/>
        <path id="path3717" opacity=".76446" stroke-linejoin="round" d="m311.71 376.47c-4.19 0-7.82 2.58-9.58 6.35-1.81-3.64-5.37-6.12-9.47-6.12-5.92 0-10.73 5.17-10.73 11.54 0 2.47 0.73 4.76 1.96 6.64l-0.06 0.03 18.54 22.93 18.4-24.45c1.05-1.78 1.67-3.11 1.67-5.38 0-6.37-4.81-11.54-10.73-11.54z" stroke="#a21313" stroke-width=".43981"/>
        <path id="path3719" opacity=".76446" stroke-linejoin="round" d="m363.32 376.47c-4.19 0-7.82 2.58-9.58 6.35-1.81-3.64-5.37-6.12-9.47-6.12-5.92 0-10.73 5.17-10.73 11.54 0 2.47 0.73 4.76 1.96 6.64l-0.06 0.03 18.54 22.93 18.4-24.45c1.05-1.78 1.67-3.11 1.67-5.38 0-6.37-4.81-11.54-10.73-11.54z" stroke="#a21313" stroke-width=".43981"/>
        <path id="path3721" opacity=".76446" stroke-linejoin="round" d="m391.73 425.72c-4.19 0-7.82 2.59-9.59 6.36-1.8-3.64-5.36-6.12-9.46-6.12-5.92 0-10.73 5.17-10.73 11.54 0 2.47 0.72 4.75 1.95 6.63l-0.05 0.04 18.54 22.92 18.39-24.44c1.06-1.79 1.67-3.11 1.67-5.39 0-6.37-4.8-11.54-10.72-11.54z" stroke="#a21313" stroke-width=".43981"/>
        <path id="path3723" opacity=".76446" stroke-linejoin="round" d="m443.34 425.72c-4.19 0-7.82 2.59-9.59 6.36-1.8-3.64-5.36-6.12-9.46-6.12-5.92 0-10.73 5.17-10.73 11.54 0 2.47 0.72 4.75 1.95 6.63l-0.05 0.04 18.54 22.92 18.39-24.44c1.06-1.79 1.67-3.11 1.67-5.39 0-6.37-4.8-11.54-10.72-11.54z" stroke="#a21313" stroke-width=".43981"/>
        <path id="path3725" opacity=".76446" stroke-linejoin="round" d="m493.25 425.72c-4.19 0-7.82 2.59-9.58 6.36-1.81-3.64-5.37-6.12-9.47-6.12-5.92 0-10.73 5.17-10.73 11.54 0 2.47 0.73 4.75 1.95 6.63l-0.05 0.04 18.54 22.92 18.4-24.44c1.05-1.79 1.67-3.11 1.67-5.39 0-6.37-4.81-11.54-10.73-11.54z" stroke="#a21313" stroke-width=".43981"/>
        <path id="path3727" opacity=".76446" stroke-linejoin="round" d="m544.86 425.72c-4.19 0-7.82 2.59-9.58 6.36-1.81-3.64-5.37-6.12-9.47-6.12-5.92 0-10.73 5.17-10.73 11.54 0 2.47 0.73 4.75 1.95 6.63l-0.05 0.04 18.54 22.92 18.4-24.44c1.05-1.79 1.67-3.11 1.67-5.39 0-6.37-4.81-11.54-10.73-11.54z" stroke="#a21313" stroke-width=".43981"/>
        <path id="path3729" opacity=".76446" stroke-linejoin="round" d="m593.11 424.91c-4.19 0-7.82 2.59-9.59 6.35-1.8-3.64-5.36-6.11-9.46-6.11-5.92 0-10.73 5.17-10.73 11.54 0 2.46 0.72 4.75 1.95 6.63l-0.05 0.03 18.54 22.93 18.39-24.44c1.06-1.79 1.67-3.12 1.67-5.39 0-6.37-4.8-11.54-10.72-11.54z" stroke="#a21313" stroke-width=".43981"/>
        <path id="path3745" opacity=".76446" stroke-linejoin="round" d="m188.21 425.32c-4.19 0-7.82 2.58-9.59 6.35-1.8-3.64-5.36-6.12-9.46-6.12-5.92 0-10.73 5.17-10.73 11.54 0 2.47 0.72 4.76 1.95 6.63l-0.06 0.04 18.55 22.93 18.39-24.45c1.06-1.78 1.67-3.11 1.67-5.38 0-6.37-4.8-11.54-10.72-11.54z" stroke="#a21313" stroke-width=".43981"/>
        <path id="path3747" opacity=".76446" stroke-linejoin="round" d="m239.81 425.32c-4.18 0-7.81 2.58-9.58 6.35-1.8-3.64-5.36-6.12-9.46-6.12-5.93 0-10.73 5.17-10.73 11.54 0 2.47 0.72 4.76 1.95 6.63l-0.06 0.04 18.55 22.93 18.39-24.45c1.06-1.78 1.67-3.11 1.67-5.38 0-6.37-4.8-11.54-10.73-11.54z" stroke="#a21313" stroke-width=".43981"/>
        <path id="path3749" opacity=".76446" stroke-linejoin="round" d="m289.73 425.32c-4.19 0-7.82 2.58-9.59 6.35-1.8-3.64-5.36-6.12-9.46-6.12-5.92 0-10.73 5.17-10.73 11.54 0 2.47 0.72 4.76 1.95 6.63l-0.05 0.04 18.54 22.93 18.39-24.45c1.06-1.78 1.67-3.11 1.67-5.38 0-6.37-4.8-11.54-10.72-11.54z" stroke="#a21313" stroke-width=".43981"/>
        <path id="path3751" opacity=".76446" stroke-linejoin="round" d="m341.34 425.32c-4.19 0-7.82 2.58-9.59 6.35-1.8-3.64-5.36-6.12-9.46-6.12-5.92 0-10.73 5.17-10.73 11.54 0 2.47 0.72 4.76 1.95 6.63l-0.05 0.04 18.54 22.93 18.39-24.45c1.06-1.78 1.67-3.11 1.67-5.38 0-6.37-4.8-11.54-10.72-11.54z" stroke="#a21313" stroke-width=".43981"/>
        <path id="path3753" opacity=".76446" stroke-linejoin="round" d="m416.97 473.76c-4.19 0-7.82 2.59-9.59 6.35-1.8-3.64-5.36-6.11-9.46-6.11-5.92 0-10.73 5.17-10.73 11.54 0 2.46 0.72 4.75 1.95 6.63l-0.06 0.03 18.55 22.93 18.39-24.44c1.06-1.79 1.67-3.12 1.67-5.39 0-6.37-4.8-11.54-10.72-11.54z" stroke="#a21313" stroke-width=".43981"/>
        <path id="path3755" opacity=".76446" stroke-linejoin="round" d="m468.58 473.76c-4.19 0-7.82 2.59-9.59 6.35-1.8-3.64-5.36-6.11-9.46-6.11-5.92 0-10.73 5.17-10.73 11.54 0 2.46 0.72 4.75 1.95 6.63l-0.06 0.03 18.55 22.93 18.39-24.44c1.06-1.79 1.67-3.12 1.67-5.39 0-6.37-4.8-11.54-10.72-11.54z" stroke="#a21313" stroke-width=".43981"/>
        <path id="path3757" opacity=".76446" stroke-linejoin="round" d="m518.49 473.76c-4.19 0-7.82 2.59-9.58 6.35-1.81-3.64-5.37-6.11-9.47-6.11-5.92 0-10.73 5.17-10.73 11.54 0 2.46 0.72 4.75 1.95 6.63l-0.05 0.03 18.54 22.93 18.39-24.44c1.06-1.79 1.68-3.12 1.68-5.39 0-6.37-4.81-11.54-10.73-11.54z" stroke="#a21313" stroke-width=".43981"/>
        <path id="path3759" opacity=".76446" stroke-linejoin="round" d="m570.1 473.76c-4.19 0-7.82 2.59-9.59 6.35-1.8-3.64-5.36-6.11-9.46-6.11-5.92 0-10.73 5.17-10.73 11.54 0 2.46 0.72 4.75 1.95 6.63l-0.05 0.03 18.54 22.93 18.39-24.44c1.06-1.79 1.67-3.12 1.67-5.39 0-6.37-4.8-11.54-10.72-11.54z" stroke="#a21313" stroke-width=".43981"/>
        <path id="path3777" opacity=".76446" stroke-linejoin="round" d="m213.44 473.35c-4.18 0-7.81 2.59-9.58 6.36-1.8-3.64-5.36-6.12-9.46-6.12-5.93 0-10.73 5.17-10.73 11.54 0 2.47 0.72 4.75 1.95 6.63l-0.06 0.04 18.54 22.92 18.4-24.44c1.06-1.79 1.67-3.11 1.67-5.39 0-6.37-4.8-11.54-10.73-11.54z" stroke="#a21313" stroke-width=".43981"/>
        <path id="path3779" opacity=".76446" stroke-linejoin="round" d="m265.05 473.35c-4.18 0-7.81 2.59-9.58 6.36-1.8-3.64-5.36-6.12-9.46-6.12-5.93 0-10.73 5.17-10.73 11.54 0 2.47 0.72 4.75 1.95 6.63l-0.06 0.04 18.54 22.92 18.4-24.44c1.06-1.79 1.67-3.11 1.67-5.39 0-6.37-4.8-11.54-10.73-11.54z" stroke="#a21313" stroke-width=".43981"/>
        <path id="path3781" opacity=".76446" stroke-linejoin="round" d="m314.97 473.35c-4.19 0-7.82 2.59-9.59 6.36-1.8-3.64-5.36-6.12-9.46-6.12-5.92 0-10.73 5.17-10.73 11.54 0 2.47 0.72 4.75 1.95 6.63l-0.06 0.04 18.55 22.92 18.39-24.44c1.06-1.79 1.67-3.11 1.67-5.39 0-6.37-4.8-11.54-10.72-11.54z" stroke="#a21313" stroke-width=".43981"/>
        <path id="path3783" opacity=".76446" stroke-linejoin="round" d="m366.58 473.35c-4.19 0-7.82 2.59-9.59 6.36-1.8-3.64-5.36-6.12-9.46-6.12-5.93 0-10.73 5.17-10.73 11.54 0 2.47 0.72 4.75 1.95 6.63l-0.06 0.04 18.55 22.92 18.39-24.44c1.06-1.79 1.67-3.11 1.67-5.39 0-6.37-4.8-11.54-10.72-11.54z" stroke="#a21313" stroke-width=".43981"/>
        <path id="path3785" opacity=".76446" stroke-linejoin="round" d="m397.43 524.24c-4.19 0-7.82 2.58-9.59 6.35-1.8-3.64-5.36-6.12-9.46-6.12-5.92 0-10.73 5.17-10.73 11.54 0 2.47 0.72 4.76 1.95 6.63l-0.06 0.04 18.55 22.93 18.39-24.45c1.06-1.78 1.67-3.11 1.67-5.38 0-6.37-4.8-11.54-10.72-11.54z" stroke="#a21313" stroke-width=".43981"/>
        <path id="path3787" opacity=".76446" stroke-linejoin="round" d="m449.04 524.24c-4.19 0-7.82 2.58-9.59 6.35-1.8-3.64-5.36-6.12-9.46-6.12-5.92 0-10.73 5.17-10.73 11.54 0 2.47 0.72 4.76 1.95 6.63l-0.06 0.04 18.55 22.93 18.39-24.45c1.06-1.78 1.67-3.11 1.67-5.38 0-6.37-4.8-11.54-10.72-11.54z" stroke="#a21313" stroke-width=".43981"/>
        <path id="path3789" opacity=".76446" stroke-linejoin="round" d="m498.95 524.24c-4.19 0-7.82 2.58-9.58 6.35-1.81-3.64-5.37-6.12-9.47-6.12-5.92 0-10.73 5.17-10.73 11.54 0 2.47 0.73 4.76 1.95 6.63l-0.05 0.04 18.54 22.93 18.39-24.45c1.06-1.78 1.68-3.11 1.68-5.38 0-6.37-4.81-11.54-10.73-11.54z" stroke="#a21313" stroke-width=".43981"/>
        <path id="path3791" opacity=".76446" stroke-linejoin="round" d="m550.56 524.24c-4.19 0-7.82 2.58-9.58 6.35-1.81-3.64-5.37-6.12-9.47-6.12-5.92 0-10.73 5.17-10.73 11.54 0 2.47 0.72 4.76 1.95 6.63l-0.05 0.04 18.54 22.93 18.39-24.45c1.06-1.78 1.68-3.11 1.68-5.38 0-6.37-4.81-11.54-10.73-11.54z" stroke="#a21313" stroke-width=".43981"/>
        <path id="path3811" opacity=".76446" stroke-linejoin="round" d="m245.51 523.83c-4.18 0-7.81 2.59-9.58 6.35-1.8-3.64-5.36-6.11-9.46-6.11-5.93 0-10.73 5.17-10.73 11.54 0 2.46 0.72 4.75 1.95 6.63l-0.06 0.03 18.54 22.93 18.4-24.44c1.06-1.79 1.67-3.12 1.67-5.39 0-6.37-4.8-11.54-10.73-11.54z" stroke="#a21313" stroke-width=".43981"/>
        <path id="path3813" opacity=".76446" stroke-linejoin="round" d="m295.43 523.83c-4.19 0-7.82 2.59-9.59 6.35-1.8-3.64-5.36-6.11-9.46-6.11-5.92 0-10.73 5.17-10.73 11.54 0 2.46 0.72 4.75 1.95 6.63l-0.06 0.03 18.55 22.93 18.39-24.44c1.06-1.79 1.67-3.12 1.67-5.39 0-6.37-4.8-11.54-10.72-11.54z" stroke="#a21313" stroke-width=".43981"/>
        <path id="path3815" opacity=".76446" stroke-linejoin="round" d="m347.04 523.83c-4.19 0-7.82 2.59-9.59 6.35-1.8-3.64-5.36-6.11-9.46-6.11-5.92 0-10.73 5.17-10.73 11.54 0 2.46 0.72 4.75 1.95 6.63l-0.06 0.03 18.55 22.93 18.39-24.44c1.06-1.79 1.67-3.12 1.67-5.39 0-6.37-4.8-11.54-10.72-11.54z" stroke="#a21313" stroke-width=".43981"/>
        <path id="path3817" opacity=".76446" stroke-linejoin="round" d="m421.85 573.9c-4.19 0-7.81 2.59-9.58 6.35-1.81-3.64-5.37-6.11-9.47-6.11-5.92 0-10.73 5.17-10.73 11.54 0 2.46 0.73 4.75 1.96 6.63l-0.06 0.04 18.54 22.92 18.4-24.44c1.05-1.79 1.67-3.12 1.67-5.39 0-6.37-4.81-11.54-10.73-11.54z" stroke="#a21313" stroke-width=".43981"/>
        <path id="path3819" opacity=".76446" stroke-linejoin="round" d="m473.46 573.9c-4.19 0-7.82 2.59-9.58 6.35-1.81-3.64-5.37-6.11-9.47-6.11-5.92 0-10.73 5.17-10.73 11.54 0 2.46 0.73 4.75 1.96 6.63l-0.06 0.04 18.54 22.92 18.4-24.44c1.05-1.79 1.67-3.12 1.67-5.39 0-6.37-4.81-11.54-10.73-11.54z" stroke="#a21313" stroke-width=".43981"/>
        <path id="path3845" opacity=".76446" stroke-linejoin="round" d="m319.85 573.49c-4.19 0-7.81 2.59-9.58 6.36-1.81-3.64-5.37-6.12-9.47-6.12-5.92 0-10.73 5.17-10.73 11.54 0 2.47 0.73 4.75 1.96 6.63l-0.06 0.04 18.54 22.92 18.4-24.44c1.05-1.79 1.67-3.11 1.67-5.39 0-6.37-4.81-11.54-10.73-11.54z" stroke="#a21313" stroke-width=".43981"/>
        <path id="path3847" opacity=".76446" stroke-linejoin="round" d="m371.46 573.49c-4.19 0-7.82 2.59-9.58 6.36-1.81-3.64-5.37-6.12-9.47-6.12-5.92 0-10.73 5.17-10.73 11.54 0 2.47 0.73 4.75 1.96 6.63l-0.06 0.04 18.54 22.92 18.4-24.44c1.05-1.79 1.67-3.11 1.67-5.39 0-6.37-4.81-11.54-10.73-11.54z" stroke="#a21313" stroke-width=".43981"/>
        <path id="path3849" opacity=".76446" stroke-linejoin="round" d="m401.5 624.38c-4.19 0-7.82 2.58-9.59 6.35-1.8-3.64-5.36-6.12-9.46-6.12-5.92 0-10.73 5.17-10.73 11.54 0 2.47 0.72 4.76 1.95 6.64l-0.05 0.03 18.54 22.93 18.39-24.45c1.06-1.78 1.67-3.11 1.67-5.38 0-6.37-4.8-11.54-10.72-11.54z" stroke="#a21313" stroke-width=".43981"/>
        <path id="path3851" opacity=".76446" stroke-linejoin="round" d="m453.11 624.38c-4.19 0-7.82 2.58-9.59 6.35-1.8-3.64-5.36-6.12-9.46-6.12-5.92 0-10.73 5.17-10.73 11.54 0 2.47 0.72 4.76 1.95 6.64l-0.05 0.03 18.54 22.93 18.39-24.45c1.06-1.78 1.67-3.11 1.67-5.38 0-6.37-4.8-11.54-10.72-11.54z" stroke="#a21313" stroke-width=".43981"/>
        <path id="path3879" opacity=".76446" stroke-linejoin="round" d="m351.11 623.97c-4.19 0-7.82 2.59-9.59 6.35-1.8-3.64-5.36-6.11-9.46-6.11-5.92 0-10.73 5.17-10.73 11.54 0 2.47 0.72 4.75 1.95 6.63l-0.05 0.04 18.54 22.92 18.39-24.44c1.06-1.79 1.67-3.12 1.67-5.39 0-6.37-4.8-11.54-10.72-11.54z" stroke="#a21313" stroke-width=".43981"/>
        <path id="path3881" opacity=".76446" stroke-linejoin="round" d="m425.92 674.04c-4.19 0-7.81 2.59-9.58 6.35-1.81-3.63-5.37-6.11-9.47-6.11-5.92 0-10.73 5.17-10.73 11.54 0 2.47 0.73 4.75 1.96 6.63l-0.06 0.04 18.54 22.92 18.4-24.44c1.06-1.79 1.67-3.11 1.67-5.39 0-6.37-4.81-11.54-10.73-11.54z" stroke="#a21313" stroke-width=".43981"/>
        <path id="path3911" opacity=".76446" stroke-linejoin="round" d="m375.53 673.63c-4.19 0-7.81 2.59-9.58 6.36-1.81-3.64-5.37-6.12-9.47-6.12-5.92 0-10.73 5.17-10.73 11.54 0 2.47 0.73 4.76 1.96 6.63l-0.06 0.04 18.54 22.92 18.4-24.44c1.05-1.79 1.67-3.11 1.67-5.39 0-6.36-4.81-11.54-10.73-11.54z" stroke="#a21313" stroke-width=".43981"/>
        <path id="path3921" opacity=".76446" stroke-linejoin="round" d="m467.44 178.22c-4.18 0-7.81 2.59-9.58 6.35-1.8-3.64-5.36-6.11-9.47-6.11-5.92 0-10.72 5.17-10.72 11.54 0 2.46 0.72 4.75 1.95 6.63l-0.06 0.04 18.54 22.92 18.4-24.44c1.06-1.79 1.67-3.12 1.67-5.39 0-6.37-4.81-11.54-10.73-11.54z" stroke="#a21313" stroke-width=".43981"/>
        <path id="path3923" opacity=".76446" stroke-linejoin="round" d="m519.05 178.22c-4.19 0-7.81 2.59-9.58 6.35-1.8-3.64-5.37-6.11-9.47-6.11-5.92 0-10.72 5.17-10.72 11.54 0 2.46 0.72 4.75 1.95 6.63l-0.06 0.04 18.54 22.92 18.4-24.44c1.06-1.79 1.67-3.12 1.67-5.39 0-6.37-4.81-11.54-10.73-11.54z" stroke="#a21313" stroke-width=".43981"/>
        <path id="path3925" opacity=".76446" stroke-linejoin="round" d="m567.3 177.41c-4.19 0-7.81 2.58-9.58 6.35-1.81-3.64-5.37-6.12-9.47-6.12-5.92 0-10.73 5.17-10.73 11.54 0 2.47 0.73 4.76 1.96 6.63l-0.06 0.04 18.54 22.93 18.4-24.45c1.06-1.78 1.67-3.11 1.67-5.38 0-6.37-4.81-11.54-10.73-11.54z" stroke="#a21313" stroke-width=".43981"/>
        <path id="path3927" opacity=".76446" stroke-linejoin="round" d="m618.91 177.41c-4.19 0-7.81 2.58-9.58 6.35-1.81-3.64-5.37-6.12-9.47-6.12-5.92 0-10.73 5.17-10.73 11.54 0 2.47 0.73 4.76 1.96 6.63l-0.06 0.04 18.54 22.93 18.4-24.45c1.05-1.78 1.67-3.11 1.67-5.38 0-6.37-4.81-11.54-10.73-11.54z" stroke="#a21313" stroke-width=".43981"/>
        <path id="path3939" opacity=".76446" stroke-linejoin="round" d="m162.4 177.81c-4.19 0-7.81 2.59-9.58 6.36-1.81-3.64-5.37-6.12-9.47-6.12-5.92 0-10.73 5.17-10.73 11.54 0 2.47 0.73 4.75 1.96 6.63l-0.06 0.04 18.54 22.92 18.4-24.44c1.05-1.79 1.67-3.11 1.67-5.39 0-6.37-4.81-11.54-10.73-11.54z" stroke="#a21313" stroke-width=".43981"/>
        <path id="path3941" opacity=".76446" stroke-linejoin="round" d="m214.01 177.81c-4.19 0-7.82 2.59-9.58 6.36-1.81-3.64-5.37-6.12-9.47-6.12-5.92 0-10.73 5.17-10.73 11.54 0 2.47 0.73 4.75 1.96 6.63l-0.06 0.04 18.54 22.92 18.4-24.44c1.05-1.79 1.67-3.11 1.67-5.39 0-6.37-4.81-11.54-10.73-11.54z" stroke="#a21313" stroke-width=".43981"/>
        <path id="path3943" opacity=".76446" stroke-linejoin="round" d="m263.92 177.81c-4.19 0-7.81 2.59-9.58 6.36-1.81-3.64-5.37-6.12-9.47-6.12-5.92 0-10.72 5.17-10.72 11.54 0 2.47 0.72 4.75 1.95 6.63l-0.06 0.04 18.54 22.92 18.4-24.44c1.06-1.79 1.67-3.11 1.67-5.39 0-6.37-4.81-11.54-10.73-11.54z" stroke="#a21313" stroke-width=".43981"/>
        <path id="path3945" opacity=".76446" stroke-linejoin="round" d="m315.53 177.81c-4.19 0-7.81 2.59-9.58 6.36-1.81-3.64-5.37-6.12-9.47-6.12-5.92 0-10.73 5.17-10.73 11.54 0 2.47 0.73 4.75 1.96 6.63l-0.06 0.04 18.54 22.92 18.4-24.44c1.06-1.79 1.67-3.11 1.67-5.39 0-6.37-4.81-11.54-10.73-11.54z" stroke="#a21313" stroke-width=".43981"/>
        <path id="path3953" opacity=".76446" stroke-linejoin="round" d="m543.48 128.56c-4.19 0-7.82 2.58-9.58 6.35-1.81-3.64-5.37-6.12-9.47-6.12-5.92 0-10.73 5.17-10.73 11.54 0 2.47 0.73 4.76 1.95 6.63l-0.05 0.04 18.54 22.93 18.39-24.45c1.06-1.78 1.68-3.11 1.68-5.38 0-6.37-4.81-11.54-10.73-11.54z" stroke="#a21313" stroke-width=".43981"/>
      </g>
    </g>
  </g>
  <metadata>
    <rdf:RDF>
      <cc:Work>
        <dc:format>image/svg+xml</dc:format>
        <dc:type rdf:resource="http://purl.org/dc/dcmitype/StillImage"/>
        <cc:license rdf:resource="http://creativecommons.org/licenses/publicdomain/"/>
        <dc:publisher>
          <cc:Agent rdf:about="http://openclipart.org/">
            <dc:title>Openclipart</dc:title>
          </cc:Agent>
        </dc:publisher>
        <dc:title>Heart in Heart (Dark)</dc:title>
        <dc:date>2008-02-21T15:15:21</dc:date>
        <dc:description>Well, it&#xB4;s getting many different&#xB4;s heart&#xB4;s made by me... what can i say... I like to make heart&#xB4;s...</dc:description>
        <dc:source>http://openclipart.org/detail/14669/heart-in-heart-(dark)-by-mystica-14669</dc:source>
        <dc:creator>
          <cc:Agent>
            <dc:title>mystica</dc:title>
          </cc:Agent>
        </dc:creator>
        <dc:subject>
          <rdf:Bag>
            <rdf:li>clip art</rdf:li>
            <rdf:li>clipart</rdf:li>
            <rdf:li>heart</rdf:li>
            <rdf:li>image</rdf:li>
            <rdf:li>jpg</rdf:li>
            <rdf:li>love</rdf:li>
            <rdf:li>media</rdf:li>
            <rdf:li>png</rdf:li>
            <rdf:li>public domain</rdf:li>
            <rdf:li>svg</rdf:li>
            <rdf:li>valentine</rdf:li>
          </rdf:Bag>
        </dc:subject>
      </cc:Work>
      <cc:License rdf:about="http://creativecommons.org/licenses/publicdomain/">
        <cc:permits rdf:resource="http://creativecommons.org/ns#Reproduction"/>
        <cc:permits rdf:resource="http://creativecommons.org/ns#Distribution"/>
        <cc:permits rdf:resource="http://creativecommons.org/ns#DerivativeWorks"/>
      </cc:License>
    </rdf:RDF>
  </metadata>
</svg>
